# xmcd
#
# Track frame offsets:
#	183
#	11475
#	25875
#	40125
#	52493
#	68318
#	85703
#	99338
#	112438
#	123100
#	134868
#	150085
#	164758
#	183053
#	196173
#	212160
#	226228
#	238435
#	250730
#	266868
#	281070
#
# Disc length: 3948 seconds
#
# Revision: 0
# Processed by: cddbd v1.5PL3 Copyright (c) Steve Scherf et al.
# Submitted via: audiograbber 1.80
#
DISCID=2b0f6a15
DTITLE=Claude François - 124 succès, 124 souvenirs
DYEAR=1900
DGENRE=blues
TTITLE0=Gens qui pleurent, gens qui rient
TTITLE1=Je viens dîner ce soir
TTITLE2=A part ça la vie est belle
TTITLE3=L'amour c'est comme ça
TTITLE4=chanson populaire
TTITLE5=Sha la la
TTITLE6=Fille sauvage
TTITLE7=Immortelles sont les filles
TTITLE8=J'ai perdu ma chance
TTITLE9=Le mal-aimé
TTITLE10=Toute ma vie je chanterai pour toi
TTITLE11=La plus belle fille du monde
TTITLE12=Le téléphone pleure
TTITLE13=La musique Américaine
TTITLE14=Heureusement, tu penses à moi
TTITLE15=Toi et moi contre le monde entier
TTITLE16=Il ne reste qu'à partir
TTITLE17=Un petit peu d'amour
TTITLE18=Joue quelque chose de simple
TTITLE19=Soudain, il ne reste qu'une chanson
TTITLE20=Le chanteur malheureux
EXTD=Selection du Reader's Digest, Disque 5
EXTT0=
EXTT1=
EXTT2=
EXTT3=
EXTT4=
EXTT5=
EXTT6=
EXTT7=
EXTT8=
EXTT9=
EXTT10=
EXTT11=
EXTT12=
EXTT13=
EXTT14=
EXTT15=
EXTT16=
EXTT17=
EXTT18=
EXTT19=
EXTT20=
PLAYORDER=
